<?xml version="1.0" encoding="UTF-8" standalone="no"?>
<!-- Created with Inkscape (http://www.inkscape.org/) -->
<svg
   xmlns:dc="http://purl.org/dc/elements/1.1/"
   xmlns:cc="http://web.resource.org/cc/"
   xmlns:rdf="http://www.w3.org/1999/02/22-rdf-syntax-ns#"
   xmlns:svg="http://www.w3.org/2000/svg"
   xmlns="http://www.w3.org/2000/svg"
   xmlns:xlink="http://www.w3.org/1999/xlink"
   xmlns:sodipodi="http://sodipodi.sourceforge.net/DTD/sodipodi-0.dtd"
   xmlns:inkscape="http://www.inkscape.org/namespaces/inkscape"
   width="800px"
   height="600px"
   id="svg1874"
   sodipodi:version="0.32"
   inkscape:version="0.45"
   sodipodi:docbase="/home/josbeir/Development/current_projects/idf_bagel/vendor/plugins/bagel/doc/svg"
   sodipodi:docname="drawing.svg"
   inkscape:output_extension="org.inkscape.output.svg.inkscape"
   sodipodi:modified="true">
  <defs
     id="defs1876">
    <linearGradient
       id="linearGradient12852">
      <stop
         id="stop12854"
         offset="0"
         style="stop-color:#f1f1f1;stop-opacity:1;" />
      <stop
         id="stop12856"
         offset="1"
         style="stop-color:#ffffff;stop-opacity:1;" />
    </linearGradient>
    <linearGradient
       id="linearGradient4298">
      <stop
         id="stop4300"
         offset="0"
         style="stop-color:#ffffff;stop-opacity:1;" />
      <stop
         id="stop4302"
         offset="1"
         style="stop-color:#ffffff;stop-opacity:0.68367344;" />
    </linearGradient>
    <linearGradient
       id="linearGradient3326">
      <stop
         id="stop3328"
         offset="0"
         style="stop-color:#5f5f5f;stop-opacity:1;" />
      <stop
         id="stop3330"
         offset="1"
         style="stop-color:#144282;stop-opacity:0;" />
    </linearGradient>
    <linearGradient
       id="linearGradient3318">
      <stop
         style="stop-color:#144282;stop-opacity:1;"
         offset="0"
         id="stop3320" />
      <stop
         style="stop-color:#144282;stop-opacity:0;"
         offset="1"
         id="stop3322" />
    </linearGradient>
    <linearGradient
       inkscape:collect="always"
       id="linearGradient3300">
      <stop
         style="stop-color:#144282;stop-opacity:1;"
         offset="0"
         id="stop3302" />
      <stop
         style="stop-color:#144282;stop-opacity:0;"
         offset="1"
         id="stop3304" />
    </linearGradient>
    <linearGradient
       inkscape:collect="always"
       id="linearGradient6811">
      <stop
         style="stop-color:#000000;stop-opacity:1;"
         offset="0"
         id="stop6813" />
      <stop
         style="stop-color:#000000;stop-opacity:0;"
         offset="1"
         id="stop6815" />
    </linearGradient>
    <linearGradient
       inkscape:collect="always"
       id="linearGradient7211">
      <stop
         style="stop-color:#ffffff;stop-opacity:1;"
         offset="0"
         id="stop7213" />
      <stop
         style="stop-color:#ffffff;stop-opacity:0;"
         offset="1"
         id="stop7215" />
    </linearGradient>
    <linearGradient
       id="linearGradient3007">
      <stop
         style="stop-color:#899cb7;stop-opacity:1;"
         offset="0"
         id="stop3009" />
      <stop
         style="stop-color:#c7d1df;stop-opacity:1;"
         offset="1"
         id="stop3011" />
    </linearGradient>
    <linearGradient
       inkscape:collect="always"
       id="linearGradient2999">
      <stop
         style="stop-color:#144282;stop-opacity:1;"
         offset="0"
         id="stop3001" />
      <stop
         style="stop-color:#144282;stop-opacity:0;"
         offset="1"
         id="stop3003" />
    </linearGradient>
    <linearGradient
       inkscape:collect="always"
       id="linearGradient2889">
      <stop
         style="stop-color:white;stop-opacity:1;"
         offset="0"
         id="stop2891" />
      <stop
         style="stop-color:white;stop-opacity:0;"
         offset="1"
         id="stop2893" />
    </linearGradient>
    <linearGradient
       id="linearGradient2879">
      <stop
         style="stop-color:white;stop-opacity:1;"
         offset="0"
         id="stop2881" />
      <stop
         style="stop-color:#ff9c00;stop-opacity:0;"
         offset="1"
         id="stop2883" />
    </linearGradient>
    <linearGradient
       id="linearGradient2828">
      <stop
         style="stop-color:#a7bad5;stop-opacity:1;"
         offset="0"
         id="stop2831" />
      <stop
         style="stop-color:#dee3ea;stop-opacity:1;"
         offset="1"
         id="stop2833" />
    </linearGradient>
    <linearGradient
       id="linearGradient2810">
      <stop
         style="stop-color:#3d4a81;stop-opacity:1;"
         offset="0"
         id="stop2812" />
      <stop
         style="stop-color:#8691c0;stop-opacity:0;"
         offset="1"
         id="stop2814" />
    </linearGradient>
    <linearGradient
       id="linearGradient2939">
      <stop
         style="stop-color:#7e9bc4;stop-opacity:1;"
         offset="0"
         id="stop2941" />
      <stop
         style="stop-color:#2357a0;stop-opacity:0;"
         offset="1"
         id="stop2943" />
    </linearGradient>
    <linearGradient
       id="linearGradient2916">
      <stop
         id="stop2918"
         offset="0"
         style="stop-color:white;stop-opacity:1;" />
      <stop
         id="stop2920"
         offset="1"
         style="stop-color:white;stop-opacity:0;" />
    </linearGradient>
    <linearGradient
       id="linearGradient2826">
      <stop
         style="stop-color:black;stop-opacity:1;"
         offset="0"
         id="stop2828" />
      <stop
         style="stop-color:black;stop-opacity:0;"
         offset="1"
         id="stop2830" />
    </linearGradient>
    <linearGradient
       id="linearGradient1884">
      <stop
         style="stop-color:#a78282;stop-opacity:1;"
         offset="0"
         id="stop1886" />
      <stop
         style="stop-color:#cddcec;stop-opacity:1;"
         offset="1"
         id="stop1888" />
    </linearGradient>
    <linearGradient
       inkscape:collect="always"
       xlink:href="#linearGradient2826"
       id="linearGradient2894"
       gradientUnits="userSpaceOnUse"
       gradientTransform="matrix(0.806068,0,0,0.82057,437.1197,-165.7543)"
       x1="-706.81213"
       y1="375.50586"
       x2="-706.81213"
       y2="357.12369" />
    <linearGradient
       inkscape:collect="always"
       xlink:href="#linearGradient2916"
       id="linearGradient2914"
       x1="348.76895"
       y1="345.88464"
       x2="348.76895"
       y2="428.95789"
       gradientUnits="userSpaceOnUse"
       gradientTransform="matrix(1.128266,0,0,1.128266,39.14738,-196.4534)" />
    <linearGradient
       inkscape:collect="always"
       xlink:href="#linearGradient2939"
       id="linearGradient2945"
       x1="423.44012"
       y1="237.57167"
       x2="426.172"
       y2="285.66235"
       gradientUnits="userSpaceOnUse"
       gradientTransform="matrix(1.128266,0,0,1.128266,17.57144,2.866764)" />
    <radialGradient
       inkscape:collect="always"
       xlink:href="#linearGradient2826"
       id="radialGradient2957"
       cx="324.52982"
       cy="339.2171"
       fx="324.52982"
       fy="339.2171"
       r="377.33029"
       gradientTransform="matrix(1,0,0,5.631399e-2,0,320.1144)"
       gradientUnits="userSpaceOnUse" />
    <linearGradient
       inkscape:collect="always"
       xlink:href="#linearGradient2826"
       id="linearGradient5704"
       gradientUnits="userSpaceOnUse"
       gradientTransform="matrix(0.806068,0,0,0.82057,437.1197,-165.7543)"
       x1="-706.81213"
       y1="375.50586"
       x2="-706.81213"
       y2="357.12369" />
    <linearGradient
       inkscape:collect="always"
       xlink:href="#linearGradient2826"
       id="linearGradient5706"
       gradientUnits="userSpaceOnUse"
       gradientTransform="matrix(0.806068,0,0,0.82057,437.1197,-165.7543)"
       x1="-706.81213"
       y1="375.50586"
       x2="-706.81213"
       y2="357.12369" />
    <linearGradient
       inkscape:collect="always"
       xlink:href="#linearGradient2889"
       id="linearGradient2919"
       gradientUnits="userSpaceOnUse"
       x1="455.625"
       y1="-503.75"
       x2="460.5"
       y2="-508.5" />
    <linearGradient
       inkscape:collect="always"
       xlink:href="#linearGradient2999"
       id="linearGradient3005"
       x1="329.25"
       y1="127.25"
       x2="329.25"
       y2="147.75153"
       gradientUnits="userSpaceOnUse"
       gradientTransform="translate(-28,-3)" />
    <linearGradient
       inkscape:collect="always"
       xlink:href="#linearGradient3007"
       id="linearGradient3017"
       gradientUnits="userSpaceOnUse"
       x1="306.75"
       y1="155"
       x2="306.75"
       y2="140.50127"
       gradientTransform="translate(3.380535,23.42093)" />
    <filter
       inkscape:collect="always"
       x="-0.046250684"
       width="1.0925014"
       y="-0.1567718"
       height="1.3135436"
       id="filter3624">
      <feGaussianBlur
         inkscape:collect="always"
         stdDeviation="1.9400511"
         id="feGaussianBlur3626" />
    </filter>
    <linearGradient
       inkscape:collect="always"
       xlink:href="#linearGradient7211"
       id="linearGradient5787"
       gradientUnits="userSpaceOnUse"
       gradientTransform="matrix(0.5016577,-5.6216942e-2,5.5334832e-2,0.5096548,596.94552,342.7659)"
       x1="369.90268"
       y1="-55.540459"
       x2="390.5"
       y2="-76.137787" />
    <linearGradient
       inkscape:collect="always"
       xlink:href="#linearGradient7211"
       id="linearGradient5790"
       gradientUnits="userSpaceOnUse"
       gradientTransform="matrix(0.5016577,-5.6216942e-2,5.5334832e-2,0.5096548,596.88837,344.5778)"
       x1="402"
       y1="-85.637787"
       x2="390.5"
       y2="-76.137787" />
    <linearGradient
       inkscape:collect="always"
       xlink:href="#linearGradient7211"
       id="linearGradient6774"
       gradientUnits="userSpaceOnUse"
       gradientTransform="matrix(0.5016577,-5.6216942e-2,5.5334832e-2,0.5096548,596.88837,344.5778)"
       x1="402"
       y1="-85.637787"
       x2="390.5"
       y2="-76.137787" />
    <linearGradient
       inkscape:collect="always"
       xlink:href="#linearGradient7211"
       id="linearGradient6776"
       gradientUnits="userSpaceOnUse"
       gradientTransform="matrix(0.5016577,-5.6216942e-2,5.5334832e-2,0.5096548,596.94552,342.7659)"
       x1="369.90268"
       y1="-55.540459"
       x2="390.5"
       y2="-76.137787" />
    <linearGradient
       inkscape:collect="always"
       xlink:href="#linearGradient2916"
       id="linearGradient6803"
       x1="757.31134"
       y1="295.41376"
       x2="760.49335"
       y2="291.17111"
       gradientUnits="userSpaceOnUse"
       gradientTransform="translate(47.022601,2.8284271)" />
    <linearGradient
       inkscape:collect="always"
       xlink:href="#linearGradient2916"
       id="linearGradient6807"
       gradientUnits="userSpaceOnUse"
       gradientTransform="translate(47.022603,3.1819846)"
       x1="751.65448"
       y1="266.06882"
       x2="747.99518"
       y2="272.40692" />
    <radialGradient
       inkscape:collect="always"
       xlink:href="#linearGradient6811"
       id="radialGradient6817"
       cx="740.25244"
       cy="290.72916"
       fx="740.25244"
       fy="290.72916"
       r="2.2097087"
       gradientTransform="matrix(1,0,0,12.6,0,-3372.4582)"
       gradientUnits="userSpaceOnUse" />
    <linearGradient
       inkscape:collect="always"
       xlink:href="#linearGradient3300"
       id="linearGradient3306"
       x1="592"
       y1="64.973213"
       x2="592"
       y2="111.15751"
       gradientUnits="userSpaceOnUse"
       gradientTransform="translate(-93.928932,-143.59293)" />
    <linearGradient
       inkscape:collect="always"
       xlink:href="#linearGradient3300"
       id="linearGradient3308"
       x1="592"
       y1="64.973213"
       x2="592"
       y2="111.15751"
       gradientUnits="userSpaceOnUse"
       gradientTransform="translate(-93.928932,-143.59293)" />
    <linearGradient
       inkscape:collect="always"
       xlink:href="#linearGradient3300"
       id="linearGradient3310"
       x1="592"
       y1="64.973213"
       x2="592"
       y2="111.15751"
       gradientUnits="userSpaceOnUse"
       gradientTransform="translate(-93.928932,-143.59293)" />
    <linearGradient
       inkscape:collect="always"
       xlink:href="#linearGradient3300"
       id="linearGradient3312"
       x1="592"
       y1="64.973213"
       x2="592"
       y2="111.15751"
       gradientUnits="userSpaceOnUse"
       gradientTransform="translate(-93.928932,-143.59293)" />
    <linearGradient
       inkscape:collect="always"
       xlink:href="#linearGradient3300"
       id="linearGradient3314"
       x1="592"
       y1="64.973213"
       x2="592"
       y2="111.15751"
       gradientUnits="userSpaceOnUse"
       gradientTransform="translate(-93.928932,-143.59293)" />
    <linearGradient
       inkscape:collect="always"
       xlink:href="#linearGradient3326"
       id="linearGradient3324"
       x1="571"
       y1="108"
       x2="571"
       y2="45.949615"
       gradientUnits="userSpaceOnUse" />
    <linearGradient
       inkscape:collect="always"
       xlink:href="#linearGradient3326"
       id="linearGradient3382"
       gradientUnits="userSpaceOnUse"
       x1="571"
       y1="108"
       x2="571"
       y2="45.949615" />
    <linearGradient
       inkscape:collect="always"
       xlink:href="#linearGradient3300"
       id="linearGradient3384"
       gradientUnits="userSpaceOnUse"
       gradientTransform="translate(-93.928932,-143.59293)"
       x1="592"
       y1="64.973213"
       x2="592"
       y2="111.15751" />
    <linearGradient
       inkscape:collect="always"
       xlink:href="#linearGradient3300"
       id="linearGradient3386"
       gradientUnits="userSpaceOnUse"
       gradientTransform="translate(-93.928932,-143.59293)"
       x1="592"
       y1="64.973213"
       x2="592"
       y2="111.15751" />
    <linearGradient
       inkscape:collect="always"
       xlink:href="#linearGradient3300"
       id="linearGradient3388"
       gradientUnits="userSpaceOnUse"
       gradientTransform="translate(-93.928932,-143.59293)"
       x1="592"
       y1="64.973213"
       x2="592"
       y2="111.15751" />
    <linearGradient
       inkscape:collect="always"
       xlink:href="#linearGradient3300"
       id="linearGradient3390"
       gradientUnits="userSpaceOnUse"
       gradientTransform="translate(-93.928932,-143.59293)"
       x1="592"
       y1="64.973213"
       x2="592"
       y2="111.15751" />
    <linearGradient
       inkscape:collect="always"
       xlink:href="#linearGradient3300"
       id="linearGradient3392"
       gradientUnits="userSpaceOnUse"
       gradientTransform="translate(-93.928932,-143.59293)"
       x1="592"
       y1="64.973213"
       x2="592"
       y2="111.15751" />
    <linearGradient
       inkscape:collect="always"
       xlink:href="#linearGradient3300"
       id="linearGradient3404"
       gradientUnits="userSpaceOnUse"
       gradientTransform="translate(-93.928932,-143.59293)"
       x1="592"
       y1="64.973213"
       x2="592"
       y2="111.15751" />
    <linearGradient
       inkscape:collect="always"
       xlink:href="#linearGradient3300"
       id="linearGradient3406"
       gradientUnits="userSpaceOnUse"
       gradientTransform="translate(-93.928932,-143.59293)"
       x1="592"
       y1="64.973213"
       x2="592"
       y2="111.15751" />
    <linearGradient
       inkscape:collect="always"
       xlink:href="#linearGradient3300"
       id="linearGradient3408"
       gradientUnits="userSpaceOnUse"
       gradientTransform="translate(-93.928932,-143.59293)"
       x1="592"
       y1="64.973213"
       x2="592"
       y2="111.15751" />
    <linearGradient
       inkscape:collect="always"
       xlink:href="#linearGradient3300"
       id="linearGradient3410"
       gradientUnits="userSpaceOnUse"
       gradientTransform="translate(-93.928932,-143.59293)"
       x1="592"
       y1="64.973213"
       x2="592"
       y2="111.15751" />
    <linearGradient
       inkscape:collect="always"
       xlink:href="#linearGradient3300"
       id="linearGradient3412"
       gradientUnits="userSpaceOnUse"
       gradientTransform="translate(-93.928932,-143.59293)"
       x1="592"
       y1="64.973213"
       x2="592"
       y2="111.15751" />
    <filter
       inkscape:collect="always"
       id="filter4286">
      <feGaussianBlur
         inkscape:collect="always"
         stdDeviation="10.851703"
         id="feGaussianBlur4288" />
    </filter>
    <linearGradient
       inkscape:collect="always"
       xlink:href="#linearGradient4298"
       id="linearGradient4296"
       x1="-450"
       y1="1366.2697"
       x2="-450"
       y2="1553.0685"
       gradientUnits="userSpaceOnUse"
       gradientTransform="matrix(0.5595837,0,0,0.5595837,-305.02135,554.29057)" />
    <linearGradient
       inkscape:collect="always"
       xlink:href="#linearGradient3300"
       id="linearGradient4326"
       gradientUnits="userSpaceOnUse"
       gradientTransform="translate(-93.928932,-143.59293)"
       x1="592"
       y1="64.973213"
       x2="592"
       y2="111.15751" />
    <linearGradient
       inkscape:collect="always"
       xlink:href="#linearGradient3300"
       id="linearGradient4328"
       gradientUnits="userSpaceOnUse"
       gradientTransform="translate(-93.928932,-143.59293)"
       x1="592"
       y1="64.973213"
       x2="592"
       y2="111.15751" />
    <linearGradient
       inkscape:collect="always"
       xlink:href="#linearGradient3300"
       id="linearGradient4330"
       gradientUnits="userSpaceOnUse"
       gradientTransform="translate(-93.928932,-143.59293)"
       x1="592"
       y1="64.973213"
       x2="592"
       y2="111.15751" />
    <linearGradient
       inkscape:collect="always"
       xlink:href="#linearGradient3300"
       id="linearGradient4332"
       gradientUnits="userSpaceOnUse"
       gradientTransform="translate(-93.928932,-143.59293)"
       x1="592"
       y1="64.973213"
       x2="592"
       y2="111.15751" />
    <linearGradient
       inkscape:collect="always"
       xlink:href="#linearGradient3300"
       id="linearGradient4334"
       gradientUnits="userSpaceOnUse"
       gradientTransform="translate(-93.928932,-143.59293)"
       x1="592"
       y1="64.973213"
       x2="592"
       y2="111.15751" />
    <linearGradient
       inkscape:collect="always"
       xlink:href="#linearGradient3326"
       id="linearGradient4336"
       gradientUnits="userSpaceOnUse"
       x1="571"
       y1="108"
       x2="571"
       y2="45.949615" />
    <linearGradient
       inkscape:collect="always"
       xlink:href="#linearGradient3300"
       id="linearGradient12728"
       gradientUnits="userSpaceOnUse"
       gradientTransform="translate(-93.928932,-143.59293)"
       x1="592"
       y1="64.973213"
       x2="592"
       y2="111.15751" />
    <linearGradient
       inkscape:collect="always"
       xlink:href="#linearGradient3300"
       id="linearGradient12730"
       gradientUnits="userSpaceOnUse"
       gradientTransform="translate(-93.928932,-143.59293)"
       x1="592"
       y1="64.973213"
       x2="592"
       y2="111.15751" />
    <linearGradient
       inkscape:collect="always"
       xlink:href="#linearGradient3300"
       id="linearGradient12732"
       gradientUnits="userSpaceOnUse"
       gradientTransform="translate(-93.928932,-143.59293)"
       x1="592"
       y1="64.973213"
       x2="592"
       y2="111.15751" />
    <linearGradient
       inkscape:collect="always"
       xlink:href="#linearGradient3300"
       id="linearGradient12734"
       gradientUnits="userSpaceOnUse"
       gradientTransform="translate(-93.928932,-143.59293)"
       x1="592"
       y1="64.973213"
       x2="592"
       y2="111.15751" />
    <linearGradient
       inkscape:collect="always"
       xlink:href="#linearGradient3300"
       id="linearGradient12736"
       gradientUnits="userSpaceOnUse"
       gradientTransform="translate(-93.928932,-143.59293)"
       x1="592"
       y1="64.973213"
       x2="592"
       y2="111.15751" />
    <linearGradient
       inkscape:collect="always"
       xlink:href="#linearGradient3326"
       id="linearGradient12738"
       gradientUnits="userSpaceOnUse"
       x1="571"
       y1="108"
       x2="571"
       y2="45.949615" />
    <filter
       inkscape:collect="always"
       id="filter12816">
      <feGaussianBlur
         inkscape:collect="always"
         stdDeviation="0.81422652"
         id="feGaussianBlur12818" />
    </filter>
    <linearGradient
       inkscape:collect="always"
       xlink:href="#linearGradient12852"
       id="linearGradient12850"
       x1="-81"
       y1="1157.7798"
       x2="-81"
       y2="1144.4939"
       gradientUnits="userSpaceOnUse"
       gradientTransform="matrix(1.4004407,0,0,1.4004407,-29.137313,-422.03413)" />
  </defs>
  <sodipodi:namedview
     id="base"
     pagecolor="#ffffff"
     bordercolor="#666666"
     borderopacity="1.0"
     inkscape:pageopacity="0.0"
     inkscape:pageshadow="2"
     inkscape:zoom="0.1767767"
     inkscape:cx="705.34579"
     inkscape:cy="-74.423273"
     inkscape:current-layer="layer7"
     inkscape:document-units="px"
     showguides="true"
     inkscape:guide-bbox="true"
     inkscape:window-width="1280"
     inkscape:window-height="949"
     inkscape:window-x="0"
     inkscape:window-y="25" />
  <metadata
     id="metadata1879">
    <rdf:RDF>
      <cc:Work
         rdf:about="">
        <dc:format>image/svg+xml</dc:format>
        <dc:type
           rdf:resource="http://purl.org/dc/dcmitype/StillImage" />
      </cc:Work>
    </rdf:RDF>
  </metadata>
  <g
     inkscape:groupmode="layer"
     id="layer3"
     inkscape:label="background_main"
     style="opacity:1;display:inline">
    <rect
       style="opacity:1;fill:#dddfe2;fill-opacity:1;fill-rule:evenodd;stroke:none;stroke-width:1px;stroke-linecap:butt;stroke-linejoin:miter;stroke-opacity:1"
       id="rect1882"
       width="1029.0264"
       height="603.93994"
       x="-136.82925"
       y="191.04282"
       inkscape:export-filename="/home/josbeir/WEBDEV/screen.png"
       inkscape:export-xdpi="90"
       inkscape:export-ydpi="90" />
  </g>
  <g
     inkscape:groupmode="layer"
     id="layer4"
     inkscape:label="background_container"
     style="display:inline">
    <rect
       style="opacity:1;fill:#ffffff;fill-opacity:1;stroke:none;display:inline"
       id="rect2790"
       width="899.99121"
       height="478.68204"
       x="-72.977577"
       y="252.33572"
       ry="14.142879"
       rx="16.115599" />
    <rect
       style="opacity:0.22527472;fill:none;fill-opacity:1;stroke:none"
       id="rect6604"
       width="899.99829"
       height="14.271513"
       x="-72.98468"
       y="716.75134"
       rx="0"
       ry="0"
       inkscape:export-filename="/home/josbeir/Desktop/WEBDEV/bagel_gfx/images/footer.png"
       inkscape:export-xdpi="90"
       inkscape:export-ydpi="90" />
  </g>
  <g
     id="layer1"
     inkscape:label="header"
     inkscape:groupmode="layer"
     style="opacity:1;display:inline">
    <path
       sodipodi:type="arc"
       style="fill:url(#radialGradient2957);fill-opacity:1;stroke:none"
       id="path2949"
       sodipodi:cx="324.52982"
       sodipodi:cy="339.2171"
       sodipodi:rx="377.33029"
       sodipodi:ry="21.248976"
       d="M 701.86011 339.2171 A 377.33029 21.248976 0 1 1  -52.800476,339.2171 A 377.33029 21.248976 0 1 1  701.86011 339.2171 z"
       transform="matrix(1.180249,0,0,0.3419,-7.290698,266.2365)" />
    <path
       style="fill:#144282;fill-opacity:1;stroke:none"
       d="M -68.371236,360.01392 L -68.371236,270.9004 C -68.371236,263.06751 -61.257236,256.76157 -52.420545,256.76157 L -52.420556,256.76157 L 806.45984,256.76157 C 815.29657,256.76157 822.41058,263.06751 822.41058,270.9004 L 822.41058,360.01393"
       id="path2805"
       sodipodi:nodetypes="ccccccc" />
    <path
       style="fill:url(#linearGradient2945);fill-opacity:1;stroke:none"
       d="M 821.54601,297.16909 C 812.36052,296.25812 803.03453,295.39803 793.48043,294.701 C 782.70204,293.91465 771.71316,293.2552 760.51396,292.72655 C 749.31474,292.19791 737.91749,291.81418 726.34871,291.52776 C 714.77992,291.24135 703.04808,291.0586 691.16097,290.99888 C 679.27383,290.9392 667.21073,290.9884 655.0565,291.13992 C 642.90226,291.29145 630.65223,291.53307 618.28212,291.88034 C 593.54192,292.57492 568.40784,293.66897 543.11151,295.0536 C 517.81519,296.4382 492.36098,298.14477 466.91842,300.09553 C 441.47587,302.04629 416.04526,304.22532 390.86635,306.61832 C 365.68743,309.01129 340.73003,311.59332 316.2246,314.30461 C 291.71918,317.01588 267.68457,319.86091 244.2625,322.76659 C 220.84041,325.67229 198.03711,328.64025 176.1083,331.61642 C 154.17943,334.59258 133.09225,337.57874 113.0665,340.50148 C 73.015006,346.34698 37.201134,351.97302 7.2212097,356.86139 C 0.95924169,357.88235 -1.8158928,358.41149 -7.552002,359.36466 L 821.54601,359.36466 L 821.54601,297.16909 z "
       id="path2937" />
    <path
       style="fill:url(#linearGradient2914);fill-opacity:1;stroke:none"
       d="M -68.220877,359.52388 L -68.220877,270.41036 C -68.220877,262.57743 -61.106873,256.27153 -52.270182,256.27153 L -52.270194,256.27153 L 806.61021,256.27153 C 815.44691,256.27153 822.56093,262.57743 822.56093,270.41036 L 822.56093,359.52388"
       id="path2906"
       sodipodi:nodetypes="ccccccc" />
    <path
       style="fill:none;fill-opacity:1;stroke:none"
       d="M 827.01531,344.21822 L 827.01532,716.87492 C 827.01531,724.71005 819.82777,731.01778 810.89973,731.01778 L -56.860389,731.01779 C -65.788423,731.01778 -72.975976,724.71005 -72.975976,716.8749 L -72.975976,344.21821"
       id="rect2778" />
    <rect
       style="fill:#cfe3ff;fill-opacity:1;stroke:none"
       id="rect2947"
       width="890.81934"
       height="26.011923"
       x="-68.411156"
       y="358.24149" />
    <text
       xml:space="preserve"
       style="font-size:39.05829239px;font-style:normal;font-variant:normal;font-weight:normal;font-stretch:normal;text-align:start;line-height:100%;writing-mode:lr-tb;text-anchor:start;fill:#ffffff;fill-opacity:1;stroke:none;stroke-width:1px;stroke-linecap:butt;stroke-linejoin:miter;stroke-opacity:1;font-family:LondonBetween"
       x="-50.297558"
       y="304.78189"
       id="text3006"
       sodipodi:linespacing="100%"><tspan
         sodipodi:role="line"
         id="tspan3008"
         x="-50.297558"
         y="304.78189">bagel</tspan></text>
  </g>
  <g
     inkscape:groupmode="layer"
     id="layer6"
     inkscape:label="beta"
     style="display:none">
    <g
       style="opacity:1;display:inline"
       id="g6831">
      <path
         transform="matrix(0.4853947,-0.5848008,0.7694748,0.6386773,205.31235,529.99234)"
         d="M 742.46215 290.72916 A 2.2097087 27.842329 0 1 1  738.04273,290.72916 A 2.2097087 27.842329 0 1 1  742.46215 290.72916 z"
         sodipodi:ry="27.842329"
         sodipodi:rx="2.2097087"
         sodipodi:cy="290.72916"
         sodipodi:cx="740.25244"
         id="path6809"
         style="opacity:1;fill:url(#radialGradient6817);fill-opacity:1;stroke:none;stroke-width:0.22400001;stroke-miterlimit:4;stroke-dasharray:none;stroke-opacity:1"
         sodipodi:type="arc" />
      <path
         sodipodi:nodetypes="ccccc"
         id="rect6782"
         d="M 759.11322,-318.06882 L 812.30212,-318.43533 L 825.2006,-303.49198 L 740.37565,-301.91054 L 759.11322,-318.06882 z "
         style="opacity:1;fill:#ffd700;fill-opacity:1;stroke:none;stroke-width:0.22400001;stroke-miterlimit:4;stroke-opacity:1"
         transform="matrix(0.7557506,0.6548596,-0.6548596,0.7557506,0,0)" />
      <path
         sodipodi:nodetypes="ccccc"
         id="path6795"
         d="M 781.99066,256.45193 L 822.42822,291.0062 L 822.39046,310.74634 L 757.24833,256.39308 L 781.99066,256.45193 z "
         style="opacity:1;fill:url(#linearGradient6803);fill-opacity:1;stroke:none;stroke-width:0.22400001;stroke-miterlimit:4;stroke-opacity:1;display:inline" />
      <path
         sodipodi:nodetypes="ccccc"
         id="path6805"
         d="M 781.99066,256.80549 L 822.42822,291.35976 L 822.39046,311.0999 L 757.24833,256.74664 L 781.99066,256.80549 z "
         style="opacity:1;fill:url(#linearGradient6807);fill-opacity:1;stroke:none;stroke-width:0.22400001;stroke-miterlimit:4;stroke-opacity:1;display:inline" />
      <text
         transform="matrix(0.7616444,0.6479952,-0.6479952,0.7616444,0,0)"
         sodipodi:linespacing="125%"
         id="text6827"
         y="-297.37714"
         x="768.43829"
         style="font-size:16.05818939px;font-style:normal;font-variant:normal;font-weight:bold;font-stretch:normal;text-align:start;line-height:125%;writing-mode:lr-tb;text-anchor:start;opacity:1;fill:#000000;fill-opacity:1;stroke:none;stroke-width:1px;stroke-linecap:butt;stroke-linejoin:miter;stroke-opacity:1;display:inline;font-family:Bitstream Vera Sans"
         xml:space="preserve"><tspan
           y="-297.37714"
           x="768.43829"
           id="tspan6829"
           sodipodi:role="line">BETA</tspan></text>
      <text
         transform="matrix(0.7616444,0.6479952,-0.6479952,0.7616444,0,0)"
         sodipodi:linespacing="125%"
         id="text6823"
         y="-297.84018"
         x="767.98016"
         style="font-size:16.05818939px;font-style:normal;font-variant:normal;font-weight:bold;font-stretch:normal;text-align:start;line-height:125%;writing-mode:lr-tb;text-anchor:start;fill:#ffffff;fill-opacity:1;stroke:none;stroke-width:1px;stroke-linecap:butt;stroke-linejoin:miter;stroke-opacity:1;font-family:Bitstream Vera Sans"
         xml:space="preserve"><tspan
           y="-297.84018"
           x="767.98016"
           id="tspan6825"
           sodipodi:role="line">BETA</tspan></text>
    </g>
  </g>
  <g
     inkscape:groupmode="layer"
     id="layer2"
     inkscape:label="buttons"
     style="display:none"
     sodipodi:insensitive="true">
    <g
       style="opacity:1"
       id="g2886"
       transform="matrix(1.225285,0,0,1.225285,410.7839,194.778)"
       inkscape:export-filename="/home/josbeir/Desktop/WEBDEV/bagel/public/layout/bluegel/images/menu_tabs.png"
       inkscape:export-xdpi="90"
       inkscape:export-ydpi="90">
      <path
         sodipodi:nodetypes="ccccccc"
         id="path2888"
         d="M -180.37832,133.35451 L -180.37832,112.58968 C -180.37832,109.16428 -178.23919,106.40664 -175.58206,106.40664 L -175.58206,106.40664 L -89.655551,106.40664 C -86.998421,106.40664 -84.859291,109.16428 -84.859291,112.5897 L -84.859291,133.35452"
         style="fill:#6a79b7;fill-opacity:1;stroke:none" />
      <path
         sodipodi:nodetypes="ccccccc"
         id="path2890"
         d="M -180.37832,133.3545 L -180.37832,112.58968 C -180.37832,109.16427 -178.23919,106.40663 -175.58206,106.40663 L -175.58206,106.40663 L -89.655561,106.40663 C -86.998431,106.40663 -84.859301,109.16427 -84.859301,112.58969 L -84.859301,133.35451"
         style="fill:url(#linearGradient5706);fill-opacity:1;stroke:none" />
    </g>
    <path
       style="opacity:1;fill:#cfe3ff;fill-opacity:1;stroke:none"
       d="M -50.168455,358.42519 L -50.168455,332.78978 C -50.168455,328.56092 -47.547417,325.15643 -44.291682,325.15643 L -44.291682,325.15643 L 60.992599,325.15643 C 64.248332,325.15643 66.869374,328.56092 66.869374,332.78981 L 66.869374,358.42521"
       id="path2822"
       sodipodi:nodetypes="ccccccc"
       inkscape:export-filename="/home/josbeir/Desktop/WEBDEV/bagel/public/layout/bluegel/images/menu_tabs.png"
       inkscape:export-xdpi="90"
       inkscape:export-ydpi="90" />
    <g
       style="opacity:1"
       id="g2878"
       transform="matrix(1.225285,0,0,1.225285,290.9641,194.7774)"
       inkscape:export-filename="/home/josbeir/Desktop/WEBDEV/bagel/public/layout/bluegel/images/menu_tabs.png"
       inkscape:export-xdpi="90"
       inkscape:export-ydpi="90">
      <path
         sodipodi:nodetypes="ccccccc"
         id="path2880"
         d="M -180.37832,133.35451 L -180.37832,112.58968 C -180.37832,109.16428 -178.23919,106.40664 -175.58206,106.40664 L -175.58206,106.40664 L -89.655551,106.40664 C -86.998421,106.40664 -84.859291,109.16428 -84.859291,112.5897 L -84.859291,133.35452"
         style="fill:#8691c0;fill-opacity:1;stroke:none" />
      <path
         sodipodi:nodetypes="ccccccc"
         id="path2882"
         d="M -180.37832,133.3545 L -180.37832,112.58968 C -180.37832,109.16427 -178.23919,106.40663 -175.58206,106.40663 L -175.58206,106.40663 L -89.655561,106.40663 C -86.998431,106.40663 -84.859301,109.16427 -84.859301,112.58969 L -84.859301,133.35451"
         style="fill:url(#linearGradient5704);fill-opacity:1;stroke:none" />
    </g>
    <path
       style="opacity:1;fill:#8691c0;fill-opacity:1;stroke:none;display:inline"
       d="M 723.81537,256.74561 L 723.81537,267.19599 C 723.81537,271.62799 726.49137,275.19599 729.81537,275.19599 L 789.75114,275.19599 C 793.07514,275.19599 795.75114,271.62799 795.75114,267.19599 L 795.75114,256.74561 L 723.81537,256.74561 z "
       id="rect1914"
       sodipodi:nodetypes="ccccccc"
       inkscape:export-filename="/home/josbeir/Desktop/WEBDEV/bagel_gfx/images/toolbar_tabs.png"
       inkscape:export-xdpi="90"
       inkscape:export-ydpi="90" />
    <path
       style="opacity:1;fill:#6a79b7;fill-opacity:1;stroke:none;display:inline"
       d="M 647.09511,256.77669 L 647.09511,267.22707 C 647.09511,271.65907 649.77111,275.22707 653.09511,275.22707 L 713.03088,275.22707 C 716.35488,275.22707 719.03088,271.65907 719.03088,267.22707 L 719.03088,256.77669 L 647.09511,256.77669 z "
       id="path2806"
       sodipodi:nodetypes="ccccccc"
       inkscape:export-filename="/home/josbeir/Desktop/WEBDEV/bagel_gfx/images/toolbar_tabs.png"
       inkscape:export-xdpi="90"
       inkscape:export-ydpi="90" />
    <rect
       style="opacity:1;fill:#144282;fill-opacity:1;stroke:none;stroke-width:0.5;stroke-miterlimit:4;stroke-dasharray:none;stroke-opacity:1;display:inline;filter:url(#filter3624)"
       id="rect3019"
       width="83.89286"
       height="24.75"
       x="288.27075"
       y="93.751602"
       ry="1.8287075"
       rx="1.9142219"
       transform="matrix(0.8714351,0,0,0.8714351,62.517336,13.113822)" />
    <rect
       style="opacity:1;fill:#144282;fill-opacity:1;stroke:#ffffff;stroke-width:0.5;stroke-miterlimit:4;stroke-dasharray:none;stroke-opacity:1;display:inline"
       id="rect2997"
       width="73.107185"
       height="21.56802"
       x="313.72659"
       y="94.812263"
       ry="1.5935999"
       rx="1.6681201" />
  </g>
  <g
     inkscape:groupmode="layer"
     id="layer5"
     inkscape:label="crop"
     style="opacity:1;display:inline">
    <rect
       style="opacity:0;fill:#000000;fill-opacity:1;stroke:none"
       id="rect6596"
       width="899.974"
       height="139.22545"
       x="-72.977386"
       y="252.31487"
       inkscape:export-filename="/home/josbeir/Desktop/header.png"
       inkscape:export-xdpi="90"
       inkscape:export-ydpi="90" />
  </g>
  <g
     inkscape:groupmode="layer"
     id="layer7"
     inkscape:label="logo"
     style="display:inline">
    <rect
       style="opacity:1;fill:#ffffff;fill-opacity:1;stroke:none;stroke-width:0.22400001;stroke-miterlimit:4;stroke-dasharray:none;stroke-opacity:1;display:inline"
       id="rect3332"
       width="511.94531"
       height="156.97768"
       x="205.06097"
       y="-268.32712"
       inkscape:export-filename="/home/josbeir/Desktop/bagel_screenshots/logo.png"
       inkscape:export-xdpi="90"
       inkscape:export-ydpi="90" />
    <g
       id="g3394"
       transform="translate(9.6200604,0)">
      <text
         sodipodi:linespacing="100%"
         id="text2260"
         y="-172.35046"
         x="365.07611"
         style="font-size:75.7177887px;font-style:normal;font-variant:normal;font-weight:normal;font-stretch:normal;text-align:start;line-height:100%;writing-mode:lr-tb;text-anchor:start;opacity:1;fill:#144282;fill-opacity:1;stroke:none;stroke-width:1px;stroke-linecap:butt;stroke-linejoin:miter;stroke-opacity:1;display:inline;font-family:LondonBetween"
         xml:space="preserve"><tspan
           y="-172.35046"
           x="365.07611"
           id="tspan2262"
           sodipodi:role="line">bagel</tspan></text>
      <g
         transform="translate(-39.59798,-111.72287)"
         id="g3375">
        <path
           style="font-size:75.7177887px;font-style:normal;font-variant:normal;font-weight:normal;font-stretch:normal;text-align:start;line-height:100%;writing-mode:lr-tb;text-anchor:start;opacity:1;fill:url(#linearGradient3404);fill-opacity:1;stroke:none;stroke-width:1px;stroke-linecap:butt;stroke-linejoin:miter;stroke-opacity:1;display:inline;font-family:LondonBetween"
           d="M 422.56088,-60.115395 C 425.58959,-60.115395 428.32539,-59.649007 430.74838,-58.740395 C 433.22178,-57.831779 435.31332,-56.519167 437.02963,-54.802895 C 438.79636,-53.086626 440.16425,-51.050393 441.12338,-48.677895 C 442.0824,-46.254942 442.56085,-43.562389 442.56088,-40.584149 C 442.56085,-38.009759 442.14975,-35.641769 441.34213,-33.521649 C 440.53445,-31.351099 439.39972,-29.504789 437.93588,-27.990399 C 436.47197,-26.425599 434.73624,-25.223569 432.71713,-24.365399 C 430.74846,-23.507299 428.54633,-23.084179 426.12338,-23.084149 C 423.85186,-23.084179 421.95022,-23.317379 420.43588,-23.771649 C 418.97196,-24.175509 417.52474,-24.788549 416.06088,-25.646649 L 416.06088,-4.9903993 L 409.21713,-7.0216493 L 409.21713,-57.146645 C 411.7915,-58.156219 414.10423,-58.879838 416.12338,-59.334145 C 418.14248,-59.838932 420.28933,-60.115393 422.56088,-60.115395 z M 422.71713,-53.959145 C 421.65709,-53.959151 420.57764,-53.879814 419.46713,-53.677895 C 418.40709,-53.425509 417.27235,-53.081729 416.06088,-52.677895 L 416.06088,-32.771649 C 417.82761,-31.307799 419.39747,-30.307709 420.81088,-29.802899 C 422.27476,-29.298139 423.88786,-29.052929 425.65463,-29.052899 C 427.06801,-29.052929 428.3686,-29.353429 429.52963,-29.959149 C 430.74107,-30.514439 431.76522,-31.293349 432.62338,-32.302899 C 433.53195,-33.312489 434.24357,-34.557789 434.74838,-36.021649 C 435.25316,-37.435059 435.49835,-38.992899 435.49838,-40.709149 C 435.49837,-41.668239 435.41243,-42.607019 435.24838,-43.490399 C 435.08433,-44.373769 434.85773,-45.213996 434.52963,-46.021645 C 434.22674,-46.829305 433.84632,-47.596195 433.40463,-48.302895 C 432.96294,-49.009595 432.45386,-49.665907 431.87338,-50.271645 C 431.31811,-50.85215 430.69847,-51.348588 430.02963,-51.802895 C 429.36079,-52.257202 428.65579,-52.662287 427.87338,-52.990395 C 427.09097,-53.318508 426.26277,-53.57634 425.40463,-53.740395 C 424.54649,-53.90445 423.65098,-53.959147 422.71713,-53.959145 z "
           id="path3269" />
        <path
           style="font-size:75.7177887px;font-style:normal;font-variant:normal;font-weight:normal;font-stretch:normal;text-align:start;line-height:100%;writing-mode:lr-tb;text-anchor:start;opacity:1;fill:url(#linearGradient3406);fill-opacity:1;stroke:none;stroke-width:1px;stroke-linecap:butt;stroke-linejoin:miter;stroke-opacity:1;display:inline;font-family:LondonBetween"
           d="M 572.80597,-52.306248 C 572.20021,-52.710083 571.54399,-53.088671 570.83731,-53.442015 C 570.13059,-53.744892 569.47437,-53.896327 568.86865,-53.896322 C 568.31337,-53.896327 567.7581,-53.820609 567.20285,-53.669169 C 566.64758,-53.46726 566.14279,-53.164389 565.6885,-52.760555 C 565.23418,-52.356733 564.85559,-51.851949 564.55273,-51.246199 C 564.24985,-50.589987 564.09841,-49.83281 564.09843,-48.974666 L 564.09843,-5.3612193 L 557.28382,-7.4813193 L 557.28382,-49.883279 C 557.28382,-51.498599 557.63717,-52.937236 558.34387,-54.199193 C 559.05057,-55.410681 559.93394,-56.44549 560.994,-57.303623 C 562.05403,-58.11128 563.21504,-58.717021 564.47701,-59.120849 C 565.73896,-59.524677 566.92521,-59.726591 568.03575,-59.726592 C 568.74243,-59.726591 569.49961,-59.650873 570.30728,-59.499438 C 571.11492,-59.398481 571.7459,-59.196567 572.20023,-58.893696 L 572.80597,-52.306248"
           id="text3238" />
        <path
           style="font-size:75.7177887px;font-style:normal;font-variant:normal;font-weight:normal;font-stretch:normal;text-align:start;line-height:100%;writing-mode:lr-tb;text-anchor:start;opacity:1;fill:url(#linearGradient3408);fill-opacity:1;stroke:none;stroke-width:1px;stroke-linecap:butt;stroke-linejoin:miter;stroke-opacity:1;display:inline;font-family:LondonBetween"
           d="M 475.02963,-60.646645 L 475.02963,-32.834149 C 475.02961,-30.815029 474.64976,-29.189889 473.84213,-27.927899 C 473.08494,-26.615489 472.09686,-25.591359 470.93588,-24.834149 C 469.77485,-24.076999 468.51753,-23.555329 467.15463,-23.302899 C 465.84217,-23.000069 464.62811,-22.865439 463.46713,-22.865399 C 461.2965,-22.865439 458.97181,-23.067379 456.49838,-23.521649 C 454.07539,-23.975999 451.6401,-24.932809 449.21713,-26.396649 L 451.93588,-31.865399 C 453.65216,-30.653939 455.44316,-29.807709 457.31088,-29.302899 C 459.17858,-28.798139 460.94555,-28.521679 462.56088,-28.521649 C 464.42855,-28.521679 465.82052,-28.988059 466.77963,-29.896649 C 467.78919,-30.754809 468.31085,-32.000109 468.31088,-33.615399 L 468.31088,-36.334149 C 465.78695,-36.283689 463.29633,-36.406299 460.87338,-36.709149 C 458.5009,-37.012039 456.39732,-37.613049 454.52963,-38.521649 C 452.66193,-39.430279 451.12813,-40.730869 449.96713,-42.396649 C 448.8061,-44.062454 448.24838,-46.209274 448.24838,-48.834145 C 448.24837,-50.146599 448.50561,-51.459211 449.06088,-52.771645 C 449.61614,-54.084095 450.38303,-55.2741 451.34213,-56.334145 C 452.30121,-57.394196 453.42391,-58.240425 454.68588,-58.896645 C 455.99834,-59.552869 457.37824,-59.865394 458.84213,-59.865395 C 459.70027,-59.865392 460.61379,-59.841351 461.62338,-59.740395 C 462.68341,-59.689914 463.73879,-59.591352 464.74838,-59.490395 C 465.75793,-59.38944 466.67147,-59.266831 467.52963,-59.115395 C 468.38773,-58.963959 469.08732,-58.841352 469.59213,-58.740395 L 475.02963,-60.646645 z M 460.06088,-54.209145 C 458.64748,-54.209147 457.45746,-53.687471 456.49838,-52.677895 C 455.58975,-51.617853 455.12337,-50.348509 455.12338,-48.834145 C 455.12336,-47.370282 455.47917,-46.180271 456.18588,-45.271645 C 456.94303,-44.312566 457.91189,-43.588949 459.12338,-43.084149 C 460.33488,-42.579369 461.74603,-42.235599 463.31088,-42.084149 C 464.92619,-41.932729 466.59458,-41.877429 468.31088,-41.927899 L 468.21713,-52.834145 C 467.86375,-53.036064 467.37333,-53.213965 466.71713,-53.365395 C 466.06086,-53.516838 465.34929,-53.682715 464.59213,-53.834145 C 463.83493,-53.935108 463.05602,-54.014443 462.24838,-54.115395 C 461.44074,-54.165879 460.71708,-54.20915 460.06088,-54.209145 z "
           id="path3265" />
        <path
           style="font-size:75.7177887px;font-style:normal;font-variant:normal;font-weight:normal;font-stretch:normal;text-align:start;line-height:100%;writing-mode:lr-tb;text-anchor:start;opacity:1;fill:url(#linearGradient3410);fill-opacity:1;stroke:none;stroke-width:1px;stroke-linecap:butt;stroke-linejoin:miter;stroke-opacity:1;display:inline;font-family:LondonBetween"
           d="M 494.96713,-49.490395 C 496.1786,-49.187532 497.49122,-48.862983 498.90463,-48.459145 C 500.26754,-48.105805 501.63544,-47.584128 502.99838,-46.927895 C 504.3613,-46.221211 505.5633,-45.331707 506.62338,-44.271645 C 507.7339,-43.211619 508.62338,-41.954289 509.27963,-40.490399 C 509.93581,-39.026539 510.2796,-37.302829 510.27963,-35.334149 C 510.27961,-33.163589 509.82523,-31.293239 508.96713,-29.677899 C 508.15942,-28.012139 507.08003,-26.644239 505.71713,-25.584149 C 504.40464,-24.524139 502.95742,-23.745219 501.34213,-23.240399 C 499.77728,-22.685169 498.23146,-22.396679 496.71713,-22.396649 C 494.19319,-22.396679 492.04636,-22.807779 490.27963,-23.615399 C 488.51289,-24.372609 487.03438,-25.384719 485.87338,-26.646649 C 484.76283,-27.908649 483.97191,-29.300589 483.46713,-30.865399 C 482.96234,-32.379779 482.71712,-33.925589 482.71713,-35.490399 C 482.71714,-36.449509 482.83973,-37.461619 483.09213,-38.521649 C 483.34452,-39.581709 483.76763,-40.593819 484.37338,-41.552899 C 484.97909,-42.511999 485.75803,-43.413529 486.71713,-44.271645 C 487.67621,-45.079319 488.8542,-45.735623 490.21713,-46.240395 C 488.45036,-46.694714 487.08246,-47.228414 486.12338,-47.834145 C 486.59579,-50.795874 492.16074,-50.54831 494.96713,-49.490395 z M 496.49838,-42.834149 C 494.42876,-42.834159 492.70504,-42.110539 491.34213,-40.646649 C 490.02968,-39.182789 489.37337,-37.391769 489.37338,-35.271649 C 489.37334,-33.252529 490.02968,-31.572089 491.34213,-30.209149 C 492.70504,-28.795779 494.38547,-28.084179 496.40463,-28.084149 C 498.42373,-28.084179 500.13544,-28.795779 501.49838,-30.209149 C 502.91176,-31.622569 503.5921,-33.358299 503.59213,-35.427899 C 503.5921,-36.437489 503.40219,-37.394299 502.99838,-38.302899 C 502.64503,-39.211529 502.15458,-40.002459 501.49838,-40.709149 C 500.89262,-41.365379 500.12573,-41.899079 499.21713,-42.302899 C 498.359,-42.656259 497.45746,-42.834159 496.49838,-42.834149 z "
           id="path3261"
           sodipodi:nodetypes="ccccsscccscccsssccccccssscscscc" />
        <path
           style="font-size:75.7177887px;font-style:normal;font-variant:normal;font-weight:normal;font-stretch:normal;text-align:start;line-height:100%;writing-mode:lr-tb;text-anchor:start;opacity:1;fill:url(#linearGradient3412);fill-opacity:1;stroke:none;stroke-width:1px;stroke-linecap:butt;stroke-linejoin:miter;stroke-opacity:1;display:inline;font-family:LondonBetween"
           d="M 535.02963,-60.021645 C 537.70496,-60.021642 540.20759,-59.586507 542.52963,-58.677895 C 544.85163,-57.769283 547.02247,-56.48071 549.09213,-54.865395 L 545.99838,-49.740395 C 544.23161,-51.103325 542.50789,-52.127452 540.84213,-52.834145 C 539.22679,-53.540849 537.47904,-53.89665 535.56088,-53.896645 C 533.89506,-53.896647 532.29397,-53.596142 530.77963,-52.990395 C 529.31577,-52.384659 528.05842,-51.550451 526.99838,-50.490395 C 525.93835,-49.430355 525.10412,-48.173033 524.49838,-46.709145 C 523.94311,-45.24528 523.75319,-43.64418 523.90463,-41.927899 L 549.71713,-41.927899 C 549.71707,-38.596339 549.23869,-35.737909 548.27963,-33.365399 C 547.3205,-30.942449 546.0752,-28.973529 544.56088,-27.459149 C 543.04646,-25.894349 541.32279,-24.759629 539.40463,-24.052899 C 537.48644,-23.346229 535.61607,-22.990439 533.74838,-22.990399 C 531.22446,-22.990439 528.91173,-23.456819 526.84213,-24.365399 C 524.77253,-25.223569 522.98148,-26.468869 521.46713,-28.084149 C 520.00322,-29.699489 518.85651,-31.613119 517.99838,-33.834149 C 517.1907,-36.055219 516.77963,-38.490529 516.77963,-41.115399 C 516.77962,-43.841252 517.20274,-46.355895 518.06088,-48.677895 C 518.96951,-50.999919 520.22681,-53.024131 521.84213,-54.740395 C 523.45745,-56.406188 525.37107,-57.718804 527.59213,-58.677895 C 529.81317,-59.586508 532.30377,-60.021644 535.02963,-60.021645 z M 541.90463,-36.646649 L 524.49838,-36.646649 C 525.05364,-34.274179 526.12103,-32.384589 527.68588,-31.021649 C 529.30115,-29.608289 531.22683,-28.896679 533.49838,-28.896649 C 535.76987,-28.896679 537.61621,-29.608289 539.02963,-31.021649 C 540.44297,-32.384589 541.39981,-34.274179 541.90463,-36.646649 z "
           id="path3255" />
      </g>
    </g>
    <path
       sodipodi:type="arc"
       style="opacity:0.23076926;fill:url(#linearGradient3382);fill-opacity:1;stroke:none;stroke-width:0.22400001;stroke-miterlimit:4;stroke-dasharray:none;stroke-opacity:1;display:inline"
       id="path3316"
       sodipodi:cx="568.5"
       sodipodi:cy="20.999998"
       sodipodi:rx="235.5"
       sodipodi:ry="59"
       d="M 804 20.999998 A 235.5 59 0 1 1  333,20.999998 A 235.5 59 0 1 1  804 20.999998 z"
       transform="translate(-107.46637,-252.3158)" />
  </g>
  <g
     inkscape:groupmode="layer"
     id="layer9"
     inkscape:label="login_screen">
    <rect
       style="opacity:1;fill:#dddfe2;fill-opacity:1;fill-rule:evenodd;stroke:none;stroke-width:1px;stroke-linecap:butt;stroke-linejoin:miter;stroke-opacity:1;display:inline"
       id="rect2299"
       width="513.15302"
       height="312.21411"
       x="-717.82574"
       y="1217.4215"
       inkscape:export-filename="/home/josbeir/WEBDEV/bagel/public/layout/bluegel/images/loginbox.png"
       inkscape:export-xdpi="90"
       inkscape:export-ydpi="90" />
    <rect
       style="opacity:0.31318683;fill:#000000;fill-opacity:1;stroke:none;display:inline;filter:url(#filter4286)"
       id="rect3303"
       width="837.99121"
       height="478.68204"
       x="-698.18152"
       y="1224.6724"
       ry="14.142879"
       rx="15.005402"
       transform="matrix(0.5595837,0,0,0.5595837,-305.02135,554.29057)" />
    <rect
       style="opacity:1;fill:url(#linearGradient4296);fill-opacity:1;stroke:none;display:inline"
       id="rect2301"
       width="468.92621"
       height="267.86267"
       x="-695.71234"
       y="1239.5973"
       ry="7.914124"
       rx="8.3967781" />
    <rect
       style="opacity:1;fill:#ffffff;fill-opacity:1;stroke:none;stroke-width:0.22400001;stroke-miterlimit:4;stroke-dasharray:none;stroke-opacity:1;display:inline"
       id="rect4304"
       width="511.94531"
       height="156.97768"
       x="-909.78595"
       y="806.80823"
       inkscape:export-filename="/home/josbeir/Desktop/bagel_screenshots/logo.png"
       inkscape:export-xdpi="90"
       inkscape:export-ydpi="90" />
    <g
       id="g4312"
       transform="matrix(0.925511,0,0,0.925511,-915.68586,1378.1094)">
      <path
         id="path4314"
         d="M 422.56088,-60.115395 C 425.58959,-60.115395 428.32539,-59.649007 430.74838,-58.740395 C 433.22178,-57.831779 435.31332,-56.519167 437.02963,-54.802895 C 438.79636,-53.086626 440.16425,-51.050393 441.12338,-48.677895 C 442.0824,-46.254942 442.56085,-43.562389 442.56088,-40.584149 C 442.56085,-38.009759 442.14975,-35.641769 441.34213,-33.521649 C 440.53445,-31.351099 439.39972,-29.504789 437.93588,-27.990399 C 436.47197,-26.425599 434.73624,-25.223569 432.71713,-24.365399 C 430.74846,-23.507299 428.54633,-23.084179 426.12338,-23.084149 C 423.85186,-23.084179 421.95022,-23.317379 420.43588,-23.771649 C 418.97196,-24.175509 417.52474,-24.788549 416.06088,-25.646649 L 416.06088,-4.9903993 L 409.21713,-7.0216493 L 409.21713,-57.146645 C 411.7915,-58.156219 414.10423,-58.879838 416.12338,-59.334145 C 418.14248,-59.838932 420.28933,-60.115393 422.56088,-60.115395 z M 422.71713,-53.959145 C 421.65709,-53.959151 420.57764,-53.879814 419.46713,-53.677895 C 418.40709,-53.425509 417.27235,-53.081729 416.06088,-52.677895 L 416.06088,-32.771649 C 417.82761,-31.307799 419.39747,-30.307709 420.81088,-29.802899 C 422.27476,-29.298139 423.88786,-29.052929 425.65463,-29.052899 C 427.06801,-29.052929 428.3686,-29.353429 429.52963,-29.959149 C 430.74107,-30.514439 431.76522,-31.293349 432.62338,-32.302899 C 433.53195,-33.312489 434.24357,-34.557789 434.74838,-36.021649 C 435.25316,-37.435059 435.49835,-38.992899 435.49838,-40.709149 C 435.49837,-41.668239 435.41243,-42.607019 435.24838,-43.490399 C 435.08433,-44.373769 434.85773,-45.213996 434.52963,-46.021645 C 434.22674,-46.829305 433.84632,-47.596195 433.40463,-48.302895 C 432.96294,-49.009595 432.45386,-49.665907 431.87338,-50.271645 C 431.31811,-50.85215 430.69847,-51.348588 430.02963,-51.802895 C 429.36079,-52.257202 428.65579,-52.662287 427.87338,-52.990395 C 427.09097,-53.318508 426.26277,-53.57634 425.40463,-53.740395 C 424.54649,-53.90445 423.65098,-53.959147 422.71713,-53.959145 z "
         style="font-size:75.7177887px;font-style:normal;font-variant:normal;font-weight:normal;font-stretch:normal;text-align:start;line-height:100%;writing-mode:lr-tb;text-anchor:start;opacity:1;fill:url(#linearGradient4326);fill-opacity:1;stroke:none;stroke-width:1px;stroke-linecap:butt;stroke-linejoin:miter;stroke-opacity:1;display:inline;font-family:LondonBetween" />
      <path
         id="path4316"
         d="M 572.80597,-52.306248 C 572.20021,-52.710083 571.54399,-53.088671 570.83731,-53.442015 C 570.13059,-53.744892 569.47437,-53.896327 568.86865,-53.896322 C 568.31337,-53.896327 567.7581,-53.820609 567.20285,-53.669169 C 566.64758,-53.46726 566.14279,-53.164389 565.6885,-52.760555 C 565.23418,-52.356733 564.85559,-51.851949 564.55273,-51.246199 C 564.24985,-50.589987 564.09841,-49.83281 564.09843,-48.974666 L 564.09843,-5.3612193 L 557.28382,-7.4813193 L 557.28382,-49.883279 C 557.28382,-51.498599 557.63717,-52.937236 558.34387,-54.199193 C 559.05057,-55.410681 559.93394,-56.44549 560.994,-57.303623 C 562.05403,-58.11128 563.21504,-58.717021 564.47701,-59.120849 C 565.73896,-59.524677 566.92521,-59.726591 568.03575,-59.726592 C 568.74243,-59.726591 569.49961,-59.650873 570.30728,-59.499438 C 571.11492,-59.398481 571.7459,-59.196567 572.20023,-58.893696 L 572.80597,-52.306248"
         style="font-size:75.7177887px;font-style:normal;font-variant:normal;font-weight:normal;font-stretch:normal;text-align:start;line-height:100%;writing-mode:lr-tb;text-anchor:start;opacity:1;fill:url(#linearGradient4328);fill-opacity:1;stroke:none;stroke-width:1px;stroke-linecap:butt;stroke-linejoin:miter;stroke-opacity:1;display:inline;font-family:LondonBetween" />
      <path
         id="path4318"
         d="M 475.02963,-60.646645 L 475.02963,-32.834149 C 475.02961,-30.815029 474.64976,-29.189889 473.84213,-27.927899 C 473.08494,-26.615489 472.09686,-25.591359 470.93588,-24.834149 C 469.77485,-24.076999 468.51753,-23.555329 467.15463,-23.302899 C 465.84217,-23.000069 464.62811,-22.865439 463.46713,-22.865399 C 461.2965,-22.865439 458.97181,-23.067379 456.49838,-23.521649 C 454.07539,-23.975999 451.6401,-24.932809 449.21713,-26.396649 L 451.93588,-31.865399 C 453.65216,-30.653939 455.44316,-29.807709 457.31088,-29.302899 C 459.17858,-28.798139 460.94555,-28.521679 462.56088,-28.521649 C 464.42855,-28.521679 465.82052,-28.988059 466.77963,-29.896649 C 467.78919,-30.754809 468.31085,-32.000109 468.31088,-33.615399 L 468.31088,-36.334149 C 465.78695,-36.283689 463.29633,-36.406299 460.87338,-36.709149 C 458.5009,-37.012039 456.39732,-37.613049 454.52963,-38.521649 C 452.66193,-39.430279 451.12813,-40.730869 449.96713,-42.396649 C 448.8061,-44.062454 448.24838,-46.209274 448.24838,-48.834145 C 448.24837,-50.146599 448.50561,-51.459211 449.06088,-52.771645 C 449.61614,-54.084095 450.38303,-55.2741 451.34213,-56.334145 C 452.30121,-57.394196 453.42391,-58.240425 454.68588,-58.896645 C 455.99834,-59.552869 457.37824,-59.865394 458.84213,-59.865395 C 459.70027,-59.865392 460.61379,-59.841351 461.62338,-59.740395 C 462.68341,-59.689914 463.73879,-59.591352 464.74838,-59.490395 C 465.75793,-59.38944 466.67147,-59.266831 467.52963,-59.115395 C 468.38773,-58.963959 469.08732,-58.841352 469.59213,-58.740395 L 475.02963,-60.646645 z M 460.06088,-54.209145 C 458.64748,-54.209147 457.45746,-53.687471 456.49838,-52.677895 C 455.58975,-51.617853 455.12337,-50.348509 455.12338,-48.834145 C 455.12336,-47.370282 455.47917,-46.180271 456.18588,-45.271645 C 456.94303,-44.312566 457.91189,-43.588949 459.12338,-43.084149 C 460.33488,-42.579369 461.74603,-42.235599 463.31088,-42.084149 C 464.92619,-41.932729 466.59458,-41.877429 468.31088,-41.927899 L 468.21713,-52.834145 C 467.86375,-53.036064 467.37333,-53.213965 466.71713,-53.365395 C 466.06086,-53.516838 465.34929,-53.682715 464.59213,-53.834145 C 463.83493,-53.935108 463.05602,-54.014443 462.24838,-54.115395 C 461.44074,-54.165879 460.71708,-54.20915 460.06088,-54.209145 z "
         style="font-size:75.7177887px;font-style:normal;font-variant:normal;font-weight:normal;font-stretch:normal;text-align:start;line-height:100%;writing-mode:lr-tb;text-anchor:start;opacity:1;fill:url(#linearGradient4330);fill-opacity:1;stroke:none;stroke-width:1px;stroke-linecap:butt;stroke-linejoin:miter;stroke-opacity:1;display:inline;font-family:LondonBetween" />
      <path
         sodipodi:nodetypes="ccccsscccscccsssccccccssscscscc"
         id="path4320"
         d="M 494.96713,-49.490395 C 496.1786,-49.187532 497.49122,-48.862983 498.90463,-48.459145 C 500.26754,-48.105805 501.63544,-47.584128 502.99838,-46.927895 C 504.3613,-46.221211 505.5633,-45.331707 506.62338,-44.271645 C 507.7339,-43.211619 508.62338,-41.954289 509.27963,-40.490399 C 509.93581,-39.026539 510.2796,-37.302829 510.27963,-35.334149 C 510.27961,-33.163589 509.82523,-31.293239 508.96713,-29.677899 C 508.15942,-28.012139 507.08003,-26.644239 505.71713,-25.584149 C 504.40464,-24.524139 502.95742,-23.745219 501.34213,-23.240399 C 499.77728,-22.685169 498.23146,-22.396679 496.71713,-22.396649 C 494.19319,-22.396679 492.04636,-22.807779 490.27963,-23.615399 C 488.51289,-24.372609 487.03438,-25.384719 485.87338,-26.646649 C 484.76283,-27.908649 483.97191,-29.300589 483.46713,-30.865399 C 482.96234,-32.379779 482.71712,-33.925589 482.71713,-35.490399 C 482.71714,-36.449509 482.83973,-37.461619 483.09213,-38.521649 C 483.34452,-39.581709 483.76763,-40.593819 484.37338,-41.552899 C 484.97909,-42.511999 485.75803,-43.413529 486.71713,-44.271645 C 487.67621,-45.079319 488.8542,-45.735623 490.21713,-46.240395 C 488.45036,-46.694714 487.08246,-47.228414 486.12338,-47.834145 C 486.59579,-50.795874 492.16074,-50.54831 494.96713,-49.490395 z M 496.49838,-42.834149 C 494.42876,-42.834159 492.70504,-42.110539 491.34213,-40.646649 C 490.02968,-39.182789 489.37337,-37.391769 489.37338,-35.271649 C 489.37334,-33.252529 490.02968,-31.572089 491.34213,-30.209149 C 492.70504,-28.795779 494.38547,-28.084179 496.40463,-28.084149 C 498.42373,-28.084179 500.13544,-28.795779 501.49838,-30.209149 C 502.91176,-31.622569 503.5921,-33.358299 503.59213,-35.427899 C 503.5921,-36.437489 503.40219,-37.394299 502.99838,-38.302899 C 502.64503,-39.211529 502.15458,-40.002459 501.49838,-40.709149 C 500.89262,-41.365379 500.12573,-41.899079 499.21713,-42.302899 C 498.359,-42.656259 497.45746,-42.834159 496.49838,-42.834149 z "
         style="font-size:75.7177887px;font-style:normal;font-variant:normal;font-weight:normal;font-stretch:normal;text-align:start;line-height:100%;writing-mode:lr-tb;text-anchor:start;opacity:1;fill:url(#linearGradient4332);fill-opacity:1;stroke:none;stroke-width:1px;stroke-linecap:butt;stroke-linejoin:miter;stroke-opacity:1;display:inline;font-family:LondonBetween" />
      <path
         id="path4322"
         d="M 535.02963,-60.021645 C 537.70496,-60.021642 540.20759,-59.586507 542.52963,-58.677895 C 544.85163,-57.769283 547.02247,-56.48071 549.09213,-54.865395 L 545.99838,-49.740395 C 544.23161,-51.103325 542.50789,-52.127452 540.84213,-52.834145 C 539.22679,-53.540849 537.47904,-53.89665 535.56088,-53.896645 C 533.89506,-53.896647 532.29397,-53.596142 530.77963,-52.990395 C 529.31577,-52.384659 528.05842,-51.550451 526.99838,-50.490395 C 525.93835,-49.430355 525.10412,-48.173033 524.49838,-46.709145 C 523.94311,-45.24528 523.75319,-43.64418 523.90463,-41.927899 L 549.71713,-41.927899 C 549.71707,-38.596339 549.23869,-35.737909 548.27963,-33.365399 C 547.3205,-30.942449 546.0752,-28.973529 544.56088,-27.459149 C 543.04646,-25.894349 541.32279,-24.759629 539.40463,-24.052899 C 537.48644,-23.346229 535.61607,-22.990439 533.74838,-22.990399 C 531.22446,-22.990439 528.91173,-23.456819 526.84213,-24.365399 C 524.77253,-25.223569 522.98148,-26.468869 521.46713,-28.084149 C 520.00322,-29.699489 518.85651,-31.613119 517.99838,-33.834149 C 517.1907,-36.055219 516.77963,-38.490529 516.77963,-41.115399 C 516.77962,-43.841252 517.20274,-46.355895 518.06088,-48.677895 C 518.96951,-50.999919 520.22681,-53.024131 521.84213,-54.740395 C 523.45745,-56.406188 525.37107,-57.718804 527.59213,-58.677895 C 529.81317,-59.586508 532.30377,-60.021644 535.02963,-60.021645 z M 541.90463,-36.646649 L 524.49838,-36.646649 C 525.05364,-34.274179 526.12103,-32.384589 527.68588,-31.021649 C 529.30115,-29.608289 531.22683,-28.896679 533.49838,-28.896649 C 535.76987,-28.896679 537.61621,-29.608289 539.02963,-31.021649 C 540.44297,-32.384589 541.39981,-34.274179 541.90463,-36.646649 z "
         style="font-size:75.7177887px;font-style:normal;font-variant:normal;font-weight:normal;font-stretch:normal;text-align:start;line-height:100%;writing-mode:lr-tb;text-anchor:start;opacity:1;fill:url(#linearGradient4334);fill-opacity:1;stroke:none;stroke-width:1px;stroke-linecap:butt;stroke-linejoin:miter;stroke-opacity:1;display:inline;font-family:LondonBetween" />
    </g>
    <text
       xml:space="preserve"
       style="font-size:70.07764435px;font-style:normal;font-variant:normal;font-weight:normal;font-stretch:normal;text-align:start;line-height:100%;writing-mode:lr-tb;text-anchor:start;fill:#6382ae;fill-opacity:1;stroke:none;stroke-width:1px;stroke-linecap:butt;stroke-linejoin:miter;stroke-opacity:1;display:inline;font-family:LondonBetween"
       x="-541.15552"
       y="1321.9978"
       id="text4308"
       sodipodi:linespacing="100%"><tspan
         sodipodi:role="line"
         id="tspan4310"
         x="-541.15552"
         y="1321.9978">bagel</tspan></text>
    <path
       sodipodi:type="arc"
       style="opacity:0.23076926;fill:url(#linearGradient4336);fill-opacity:1;stroke:none;stroke-width:0.22400001;stroke-miterlimit:4;stroke-dasharray:none;stroke-opacity:1;display:inline"
       id="path4324"
       sodipodi:cx="568.5"
       sodipodi:cy="20.999998"
       sodipodi:rx="235.5"
       sodipodi:ry="59"
       d="M 804 20.999998 A 235.5 59 0 1 1  333,20.999998 A 235.5 59 0 1 1  804 20.999998 z"
       transform="matrix(0.925511,0,0,0.925511,-987.4023,1247.9891)" />
    <rect
       style="opacity:1;fill:#dcdcdc;fill-opacity:1;stroke:none;stroke-width:0.1;stroke-miterlimit:4;stroke-dasharray:none;stroke-opacity:1"
       id="rect12675"
       width="213"
       height="163.5"
       x="-202"
       y="1697"
       rx="6.9875002"
       ry="8" />
    <rect
       style="opacity:1;fill:#ffffff;fill-opacity:1;stroke:none;stroke-width:0.07012922;stroke-miterlimit:4;stroke-dasharray:none;stroke-opacity:1"
       id="rect12864"
       width="229.21898"
       height="93.36898"
       x="-193.52182"
       y="1110.5485"
       rx="0"
       ry="0"
       inkscape:export-filename="/home/josbeir/Desktop/bagel_cms.png"
       inkscape:export-xdpi="90"
       inkscape:export-ydpi="90" />
    <rect
       style="opacity:0.69060771;fill:#dedede;fill-opacity:1;stroke:none;stroke-width:0.1;stroke-miterlimit:4;stroke-dasharray:none;stroke-opacity:1"
       id="rect12862"
       width="61.346149"
       height="74.250893"
       x="-29.91235"
       y="1120.3634"
       rx="11.565876"
       ry="14.102448"
       inkscape:export-filename="/home/josbeir/Desktop/bagel_cms.png"
       inkscape:export-xdpi="90"
       inkscape:export-ydpi="90" />
    <rect
       style="opacity:1;fill:#a4a4a4;fill-opacity:1;stroke:none;stroke-width:0.1;stroke-miterlimit:4;stroke-dasharray:none;stroke-opacity:1;filter:url(#filter12816)"
       id="rect12742"
       width="136.5"
       height="60"
       x="-160.21495"
       y="1050.7927"
       ry="8"
       rx="8.1535082"
       transform="matrix(1.4004407,0,0,1.4004407,37.383623,-356.27334)"
       inkscape:export-filename="/home/josbeir/Desktop/bagel_cms.png"
       inkscape:export-xdpi="90"
       inkscape:export-ydpi="90" />
    <text
       xml:space="preserve"
       style="font-size:22.17226982px;font-style:normal;font-variant:normal;font-weight:bold;font-stretch:normal;text-align:start;line-height:125%;writing-mode:lr-tb;text-anchor:start;opacity:0.39226523;fill:#8b8b8b;fill-opacity:1;stroke:none;stroke-width:1px;stroke-linecap:butt;stroke-linejoin:miter;stroke-opacity:1;font-family:Bitstream Vera Sans"
       x="1131.0428"
       y="-8.8966341"
       id="text12858"
       sodipodi:linespacing="125%"
       transform="matrix(0,1,-1,0,0,0)"
       inkscape:export-filename="/home/josbeir/Desktop/bagel_cms.png"
       inkscape:export-xdpi="90"
       inkscape:export-ydpi="90"><tspan
         sodipodi:role="line"
         id="tspan12860"
         x="1131.0428"
         y="-8.8966341">CMS</tspan></text>
    <rect
       style="opacity:1;fill:url(#linearGradient12850);fill-opacity:1;stroke:none;stroke-width:0.1;stroke-miterlimit:4;stroke-dasharray:none;stroke-opacity:1"
       id="rect11621"
       width="191.16014"
       height="84.026436"
       x="-186.9879"
       y="1115.2996"
       ry="11.203526"
       rx="11.418505"
       inkscape:export-filename="/home/josbeir/Desktop/bagel_cms.png"
       inkscape:export-xdpi="90"
       inkscape:export-ydpi="90" />
    <g
       id="g12717"
       transform="matrix(1.562171,0,0,1.562171,52.957256,-712.0113)"
       inkscape:export-filename="/home/josbeir/Desktop/bagel_cms.png"
       inkscape:export-xdpi="90"
       inkscape:export-ydpi="90">
      <g
         transform="matrix(0.4509059,0,0,0.4509059,-312.13367,1230.0482)"
         id="g11591">
        <path
           style="font-size:75.7177887px;font-style:normal;font-variant:normal;font-weight:normal;font-stretch:normal;text-align:start;line-height:100%;writing-mode:lr-tb;text-anchor:start;opacity:1;fill:url(#linearGradient12728);fill-opacity:1;stroke:none;stroke-width:1px;stroke-linecap:butt;stroke-linejoin:miter;stroke-opacity:1;display:inline;font-family:LondonBetween"
           d="M 422.56088,-60.115395 C 425.58959,-60.115395 428.32539,-59.649007 430.74838,-58.740395 C 433.22178,-57.831779 435.31332,-56.519167 437.02963,-54.802895 C 438.79636,-53.086626 440.16425,-51.050393 441.12338,-48.677895 C 442.0824,-46.254942 442.56085,-43.562389 442.56088,-40.584149 C 442.56085,-38.009759 442.14975,-35.641769 441.34213,-33.521649 C 440.53445,-31.351099 439.39972,-29.504789 437.93588,-27.990399 C 436.47197,-26.425599 434.73624,-25.223569 432.71713,-24.365399 C 430.74846,-23.507299 428.54633,-23.084179 426.12338,-23.084149 C 423.85186,-23.084179 421.95022,-23.317379 420.43588,-23.771649 C 418.97196,-24.175509 417.52474,-24.788549 416.06088,-25.646649 L 416.06088,-4.9903993 L 409.21713,-7.0216493 L 409.21713,-57.146645 C 411.7915,-58.156219 414.10423,-58.879838 416.12338,-59.334145 C 418.14248,-59.838932 420.28933,-60.115393 422.56088,-60.115395 z M 422.71713,-53.959145 C 421.65709,-53.959151 420.57764,-53.879814 419.46713,-53.677895 C 418.40709,-53.425509 417.27235,-53.081729 416.06088,-52.677895 L 416.06088,-32.771649 C 417.82761,-31.307799 419.39747,-30.307709 420.81088,-29.802899 C 422.27476,-29.298139 423.88786,-29.052929 425.65463,-29.052899 C 427.06801,-29.052929 428.3686,-29.353429 429.52963,-29.959149 C 430.74107,-30.514439 431.76522,-31.293349 432.62338,-32.302899 C 433.53195,-33.312489 434.24357,-34.557789 434.74838,-36.021649 C 435.25316,-37.435059 435.49835,-38.992899 435.49838,-40.709149 C 435.49837,-41.668239 435.41243,-42.607019 435.24838,-43.490399 C 435.08433,-44.373769 434.85773,-45.213996 434.52963,-46.021645 C 434.22674,-46.829305 433.84632,-47.596195 433.40463,-48.302895 C 432.96294,-49.009595 432.45386,-49.665907 431.87338,-50.271645 C 431.31811,-50.85215 430.69847,-51.348588 430.02963,-51.802895 C 429.36079,-52.257202 428.65579,-52.662287 427.87338,-52.990395 C 427.09097,-53.318508 426.26277,-53.57634 425.40463,-53.740395 C 424.54649,-53.90445 423.65098,-53.959147 422.71713,-53.959145 z "
           id="path11593" />
        <path
           style="font-size:75.7177887px;font-style:normal;font-variant:normal;font-weight:normal;font-stretch:normal;text-align:start;line-height:100%;writing-mode:lr-tb;text-anchor:start;opacity:1;fill:url(#linearGradient12730);fill-opacity:1;stroke:none;stroke-width:1px;stroke-linecap:butt;stroke-linejoin:miter;stroke-opacity:1;display:inline;font-family:LondonBetween"
           d="M 572.80597,-52.306248 C 572.20021,-52.710083 571.54399,-53.088671 570.83731,-53.442015 C 570.13059,-53.744892 569.47437,-53.896327 568.86865,-53.896322 C 568.31337,-53.896327 567.7581,-53.820609 567.20285,-53.669169 C 566.64758,-53.46726 566.14279,-53.164389 565.6885,-52.760555 C 565.23418,-52.356733 564.85559,-51.851949 564.55273,-51.246199 C 564.24985,-50.589987 564.09841,-49.83281 564.09843,-48.974666 L 564.09843,-5.3612193 L 557.28382,-7.4813193 L 557.28382,-49.883279 C 557.28382,-51.498599 557.63717,-52.937236 558.34387,-54.199193 C 559.05057,-55.410681 559.93394,-56.44549 560.994,-57.303623 C 562.05403,-58.11128 563.21504,-58.717021 564.47701,-59.120849 C 565.73896,-59.524677 566.92521,-59.726591 568.03575,-59.726592 C 568.74243,-59.726591 569.49961,-59.650873 570.30728,-59.499438 C 571.11492,-59.398481 571.7459,-59.196567 572.20023,-58.893696 L 572.80597,-52.306248"
           id="path11595" />
        <path
           style="font-size:75.7177887px;font-style:normal;font-variant:normal;font-weight:normal;font-stretch:normal;text-align:start;line-height:100%;writing-mode:lr-tb;text-anchor:start;opacity:1;fill:url(#linearGradient12732);fill-opacity:1;stroke:none;stroke-width:1px;stroke-linecap:butt;stroke-linejoin:miter;stroke-opacity:1;display:inline;font-family:LondonBetween"
           d="M 475.02963,-60.646645 L 475.02963,-32.834149 C 475.02961,-30.815029 474.64976,-29.189889 473.84213,-27.927899 C 473.08494,-26.615489 472.09686,-25.591359 470.93588,-24.834149 C 469.77485,-24.076999 468.51753,-23.555329 467.15463,-23.302899 C 465.84217,-23.000069 464.62811,-22.865439 463.46713,-22.865399 C 461.2965,-22.865439 458.97181,-23.067379 456.49838,-23.521649 C 454.07539,-23.975999 451.6401,-24.932809 449.21713,-26.396649 L 451.93588,-31.865399 C 453.65216,-30.653939 455.44316,-29.807709 457.31088,-29.302899 C 459.17858,-28.798139 460.94555,-28.521679 462.56088,-28.521649 C 464.42855,-28.521679 465.82052,-28.988059 466.77963,-29.896649 C 467.78919,-30.754809 468.31085,-32.000109 468.31088,-33.615399 L 468.31088,-36.334149 C 465.78695,-36.283689 463.29633,-36.406299 460.87338,-36.709149 C 458.5009,-37.012039 456.39732,-37.613049 454.52963,-38.521649 C 452.66193,-39.430279 451.12813,-40.730869 449.96713,-42.396649 C 448.8061,-44.062454 448.24838,-46.209274 448.24838,-48.834145 C 448.24837,-50.146599 448.50561,-51.459211 449.06088,-52.771645 C 449.61614,-54.084095 450.38303,-55.2741 451.34213,-56.334145 C 452.30121,-57.394196 453.42391,-58.240425 454.68588,-58.896645 C 455.99834,-59.552869 457.37824,-59.865394 458.84213,-59.865395 C 459.70027,-59.865392 460.61379,-59.841351 461.62338,-59.740395 C 462.68341,-59.689914 463.73879,-59.591352 464.74838,-59.490395 C 465.75793,-59.38944 466.67147,-59.266831 467.52963,-59.115395 C 468.38773,-58.963959 469.08732,-58.841352 469.59213,-58.740395 L 475.02963,-60.646645 z M 460.06088,-54.209145 C 458.64748,-54.209147 457.45746,-53.687471 456.49838,-52.677895 C 455.58975,-51.617853 455.12337,-50.348509 455.12338,-48.834145 C 455.12336,-47.370282 455.47917,-46.180271 456.18588,-45.271645 C 456.94303,-44.312566 457.91189,-43.588949 459.12338,-43.084149 C 460.33488,-42.579369 461.74603,-42.235599 463.31088,-42.084149 C 464.92619,-41.932729 466.59458,-41.877429 468.31088,-41.927899 L 468.21713,-52.834145 C 467.86375,-53.036064 467.37333,-53.213965 466.71713,-53.365395 C 466.06086,-53.516838 465.34929,-53.682715 464.59213,-53.834145 C 463.83493,-53.935108 463.05602,-54.014443 462.24838,-54.115395 C 461.44074,-54.165879 460.71708,-54.20915 460.06088,-54.209145 z "
           id="path11597" />
        <path
           style="font-size:75.7177887px;font-style:normal;font-variant:normal;font-weight:normal;font-stretch:normal;text-align:start;line-height:100%;writing-mode:lr-tb;text-anchor:start;opacity:1;fill:url(#linearGradient12734);fill-opacity:1;stroke:none;stroke-width:1px;stroke-linecap:butt;stroke-linejoin:miter;stroke-opacity:1;display:inline;font-family:LondonBetween"
           d="M 494.96713,-49.490395 C 496.1786,-49.187532 497.49122,-48.862983 498.90463,-48.459145 C 500.26754,-48.105805 501.63544,-47.584128 502.99838,-46.927895 C 504.3613,-46.221211 505.5633,-45.331707 506.62338,-44.271645 C 507.7339,-43.211619 508.62338,-41.954289 509.27963,-40.490399 C 509.93581,-39.026539 510.2796,-37.302829 510.27963,-35.334149 C 510.27961,-33.163589 509.82523,-31.293239 508.96713,-29.677899 C 508.15942,-28.012139 507.08003,-26.644239 505.71713,-25.584149 C 504.40464,-24.524139 502.95742,-23.745219 501.34213,-23.240399 C 499.77728,-22.685169 498.23146,-22.396679 496.71713,-22.396649 C 494.19319,-22.396679 492.04636,-22.807779 490.27963,-23.615399 C 488.51289,-24.372609 487.03438,-25.384719 485.87338,-26.646649 C 484.76283,-27.908649 483.97191,-29.300589 483.46713,-30.865399 C 482.96234,-32.379779 482.71712,-33.925589 482.71713,-35.490399 C 482.71714,-36.449509 482.83973,-37.461619 483.09213,-38.521649 C 483.34452,-39.581709 483.76763,-40.593819 484.37338,-41.552899 C 484.97909,-42.511999 485.75803,-43.413529 486.71713,-44.271645 C 487.67621,-45.079319 488.8542,-45.735623 490.21713,-46.240395 C 488.45036,-46.694714 487.08246,-47.228414 486.12338,-47.834145 C 486.59579,-50.795874 492.16074,-50.54831 494.96713,-49.490395 z M 496.49838,-42.834149 C 494.42876,-42.834159 492.70504,-42.110539 491.34213,-40.646649 C 490.02968,-39.182789 489.37337,-37.391769 489.37338,-35.271649 C 489.37334,-33.252529 490.02968,-31.572089 491.34213,-30.209149 C 492.70504,-28.795779 494.38547,-28.084179 496.40463,-28.084149 C 498.42373,-28.084179 500.13544,-28.795779 501.49838,-30.209149 C 502.91176,-31.622569 503.5921,-33.358299 503.59213,-35.427899 C 503.5921,-36.437489 503.40219,-37.394299 502.99838,-38.302899 C 502.64503,-39.211529 502.15458,-40.002459 501.49838,-40.709149 C 500.89262,-41.365379 500.12573,-41.899079 499.21713,-42.302899 C 498.359,-42.656259 497.45746,-42.834159 496.49838,-42.834149 z "
           id="path11599"
           sodipodi:nodetypes="ccccsscccscccsssccccccssscscscc" />
        <path
           style="font-size:75.7177887px;font-style:normal;font-variant:normal;font-weight:normal;font-stretch:normal;text-align:start;line-height:100%;writing-mode:lr-tb;text-anchor:start;opacity:1;fill:url(#linearGradient12736);fill-opacity:1;stroke:none;stroke-width:1px;stroke-linecap:butt;stroke-linejoin:miter;stroke-opacity:1;display:inline;font-family:LondonBetween"
           d="M 535.02963,-60.021645 C 537.70496,-60.021642 540.20759,-59.586507 542.52963,-58.677895 C 544.85163,-57.769283 547.02247,-56.48071 549.09213,-54.865395 L 545.99838,-49.740395 C 544.23161,-51.103325 542.50789,-52.127452 540.84213,-52.834145 C 539.22679,-53.540849 537.47904,-53.89665 535.56088,-53.896645 C 533.89506,-53.896647 532.29397,-53.596142 530.77963,-52.990395 C 529.31577,-52.384659 528.05842,-51.550451 526.99838,-50.490395 C 525.93835,-49.430355 525.10412,-48.173033 524.49838,-46.709145 C 523.94311,-45.24528 523.75319,-43.64418 523.90463,-41.927899 L 549.71713,-41.927899 C 549.71707,-38.596339 549.23869,-35.737909 548.27963,-33.365399 C 547.3205,-30.942449 546.0752,-28.973529 544.56088,-27.459149 C 543.04646,-25.894349 541.32279,-24.759629 539.40463,-24.052899 C 537.48644,-23.346229 535.61607,-22.990439 533.74838,-22.990399 C 531.22446,-22.990439 528.91173,-23.456819 526.84213,-24.365399 C 524.77253,-25.223569 522.98148,-26.468869 521.46713,-28.084149 C 520.00322,-29.699489 518.85651,-31.613119 517.99838,-33.834149 C 517.1907,-36.055219 516.77963,-38.490529 516.77963,-41.115399 C 516.77962,-43.841252 517.20274,-46.355895 518.06088,-48.677895 C 518.96951,-50.999919 520.22681,-53.024131 521.84213,-54.740395 C 523.45745,-56.406188 525.37107,-57.718804 527.59213,-58.677895 C 529.81317,-59.586508 532.30377,-60.021644 535.02963,-60.021645 z M 541.90463,-36.646649 L 524.49838,-36.646649 C 525.05364,-34.274179 526.12103,-32.384589 527.68588,-31.021649 C 529.30115,-29.608289 531.22683,-28.896679 533.49838,-28.896649 C 535.76987,-28.896679 537.61621,-29.608289 539.02963,-31.021649 C 540.44297,-32.384589 541.39981,-34.274179 541.90463,-36.646649 z "
           id="path11601" />
      </g>
      <text
         sodipodi:linespacing="100%"
         id="text11603"
         y="1202.7109"
         x="-129.66043"
         style="font-size:34.14159393px;font-style:normal;font-variant:normal;font-weight:normal;font-stretch:normal;text-align:start;line-height:100%;writing-mode:lr-tb;text-anchor:start;fill:#6382ae;fill-opacity:1;stroke:none;stroke-width:1px;stroke-linecap:butt;stroke-linejoin:miter;stroke-opacity:1;display:inline;font-family:LondonBetween"
         xml:space="preserve"><tspan
           y="1202.7109"
           x="-129.66043"
           id="tspan11605"
           sodipodi:role="line">bage<tspan
   style="fill:#051766;fill-opacity:1"
   id="tspan12740">l</tspan></tspan></text>
      <path
         transform="matrix(0.2660771,0,0,0.2660771,-241.99853,1183.7379)"
         d="M 804 20.999998 A 235.5 59 0 1 1  333,20.999998 A 235.5 59 0 1 1  804 20.999998 z"
         sodipodi:ry="59"
         sodipodi:rx="235.5"
         sodipodi:cy="20.999998"
         sodipodi:cx="568.5"
         id="path11607"
         style="opacity:0.23076926;fill:url(#linearGradient12738);fill-opacity:1;stroke:none;stroke-width:0.22400001;stroke-miterlimit:4;stroke-dasharray:none;stroke-opacity:1;display:inline"
         sodipodi:type="arc" />
    </g>
  </g>
</svg>
